<?xml version="1.0" encoding="utf-8"?>
<!-- Generator: Adobe Illustrator 26.1.0, SVG Export Plug-In . SVG Version: 6.00 Build 0)  -->
<svg version="1.1" id="Layer_1" xmlns="http://www.w3.org/2000/svg" xmlns:xlink="http://www.w3.org/1999/xlink" x="0px" y="0px"
	 viewBox="0 0 300 100" style="enable-background:new 0 0 300 100;" xml:space="preserve">
<style type="text/css">
	.st0{fill:#4C4D4E;}
	.st1{fill:#ED1E24;}
	.st2{fill:#9B1B1F;}
</style>
<g>
	<path class="st0" d="M63.5,56.9c0,0.5-0.1,0.8-0.6,1c-1.1,0.5-2.2,0.9-3.2,1.5c-0.3,0.1-0.5,0.5-0.6,0.8c-0.4,1.5-0.8,3.1-1.2,4.7
		c-0.1,0.3,0,0.7,0.1,1c0.6,0.9,1.3,1.7,1.9,2.5c1,1.3,1,0.8,0.1,2.3c-0.5,0.7-0.9,1.5-1.4,2.2l-0.5,0.8c-0.9-0.2-1.8-0.4-2.6-0.6
		c-0.8-0.6-0.8-0.6-1.4,0.2c-0.9,1.4-1.9,2.6-3.5,3.2c-0.5,0.2-0.5,0.4-0.4,0.8c0.3,1.4,0.6,2.8,1,4.2c0.1,0.5,0,0.8-0.5,1.1
		c-0.8,0.5-1.6,1-2.4,1.5c-0.4,0.3-0.7,0.2-1-0.1c-0.7-0.7-1.5-1.3-2.2-1.9c-0.1-0.1-0.2-0.2-0.3-0.2l-0.6-0.6
		c-0.1-0.1-0.3-0.1-0.4,0c-1.6,0.9-3.2,1.6-5,1.8c-0.2,0-0.4,0.3-0.5,0.6c-0.3,1-0.6,2.1-0.8,3.2c-0.1,0.5-0.3,0.7-0.9,0.7
		c-0.8,0-1.7,0.1-2.5,0.1c-0.2,0-0.6-0.2-0.7-0.5c-0.3-0.9-0.6-1.9-0.9-2.9c0-0.1-0.1-0.2-0.2-0.4l-0.2-0.7h0.1
		c-0.2-0.1-0.3-0.1-0.5-0.2c-1.6-0.5-3.1-0.9-4.7-1.4c-0.5-0.2-0.9-0.3-1.3,0.2c-0.4,0.5-0.7,0.9-1.1,1.3c-0.4,0.3-0.9,0.6-1.3,0.9
		l0,0c-0.7,0.6-1.4,0.4-2.1-0.2c-0.5-0.4-1.1-0.7-1.6-1c-0.4-0.2-0.5-0.5-0.5-0.9c0.2-1.3,0.3-2.6,0.4-3.9c0-0.3-0.2-0.7-0.5-0.9
		c-0.8-0.9-1.8-1.7-2.5-2.8c-0.6-0.9-1.1-1.4-2.1-1c-0.9,0.4-2,0-2.8,0.7c-0.1,0.1-0.2,0.1-0.3,0.2l-0.2-0.4l-0.1-0.2
		c-0.4-0.9-0.8-1.8-1.3-2.7c-0.3-0.5-0.2-0.9,0.1-1.3c0.6-0.9,1.2-1.8,1.8-2.6c0.4-0.5,0.4-1,0.2-1.6c-0.3-0.9-0.8-1.9-0.8-2.9
		c0-1.8-1-2.6-2.4-3.1c-2.1-0.7-2.9-2-2.5-4.2c0.1-0.6,0.2-1,0.8-1.2c0.9-0.5,1.8-1,2.8-1.5c0.5-0.3,0.7-0.6,0.8-1.2
		c0.3-1.5,0.7-3,1.3-4.5c0.4-1,0.4-1.5-0.3-2.3c-2.3-2.5-2.3-2.6-1.5-5.4c0,0,0-0.1,0-0.1c0.1-0.6,0.4-0.8,1-0.7
		c1.2,0.2,2.4,0.3,3.6,0.4c0.5,0.1,0.9-0.1,1.2-0.5c1.1-1.2,2.2-2.3,3.3-3.5c0.2-0.2,0.4-0.7,0.3-1c-0.2-1.1-0.5-2.1-0.7-3.2
		c-0.1-0.5-0.1-0.8,0.4-1c0.7-0.4,1.3-0.8,2-1.2c1.4-0.8,1.4-0.9,2.6,0.2c1.4,1.2,2.8,2.2,4.9,1.2c-0.7,1.1-1.5,2.1-2.3,3.1
		c-0.1,0.2-0.2,0.4-0.3,0.5c-0.2,0.2-0.6,0.2-0.7,0.5c-2.8,3.4-5.2,7.1-7.1,11c-0.1,0.3-0.2,0.6-0.3,0.9v0c-0.6,1.4-1.2,2.7-1.6,4.2
		c-0.7,2.7-1.3,5.5-1.3,8.4c0,4.4,1.1,8.4,3.6,12c4.9,6.7,11.6,9.7,19.8,8.7c5.7-0.6,10-3.5,13.1-8.3c2.7-4.3,3.6-9,3.6-14
		c0.1-6.3-1.2-12.3-3.1-18.2c-0.4-1.3-0.9-2.6-1.3-3.9c0.1,0,0.2-0.1,0.2-0.1c0.8,1.3,1.6,2.5,2.4,3.8c0.2,0.4,0.5,0.6,0.9,0.5
		c1.1-0.2,2.3-0.3,3.4-0.4c0.5-0.1,0.7,0.1,0.9,0.5c0.4,0.9,1,1.8,1.4,2.8c0.1,0.3,0.1,0.8-0.1,1c-0.6,0.9-1.3,1.7-1.9,2.6
		c-0.2,0.2-0.2,0.6-0.1,0.9c0.4,1.7,0.8,3.3,1.3,5c0.1,0.3,0.3,0.7,0.6,0.9c0.9,0.5,1.8,1,2.8,1.4c0.5,0.2,0.7,0.5,0.7,1
		C63.4,55.1,63.4,56,63.5,56.9z"/>
	<path class="st1" d="M38.6,8.1c-0.3,1.7-0.5,3.3-0.8,5c-1,5.2-3.2,10-6.1,14.4c-3.1,4.7-6.4,9.4-9.5,14.1c-3.2,4.8-5,10.1-4.5,15.9
		c0.6,6.8,3.3,12.6,9.3,16.3c7.9,4.8,20,2.6,24.3-7.8c1.4-3.4,1.9-6.9,1.8-10.5C52.9,49,51.3,43,49.1,37.1c0-0.1-0.1-0.1-0.2-0.3
		c-0.4,4-1.4,7.6-3.9,10.7c0.6,0.9,1.2,1.7,1.7,2.6c0.5,0.9,0.8,1.9,1.2,3c0.2-0.9,0.4-1.8,0.6-2.6c0.1,0,0.1,0,0.2,0
		c0,1.8,0.2,3.7,0,5.5c-0.3,2.5-0.7,5-1.4,7.4c-1,3.2-2.8,6-5.9,7.7c-3.5,2-7.2,1.8-10.7,0c-4.7-2.4-7.4-6.3-8.2-11.6
		c-0.7-5.1,0.9-9.6,3.4-13.9c1.6-2.8,3.8-5.2,6-7.5c4-4.4,6.7-9.4,7.7-15.3c0.7-4.4,0.4-8.7-0.5-13C38.9,9.1,38.8,8.5,38.6,8.1
		C38.7,8,38.6,8,38.6,8.1z"/>
	<path class="st2" d="M43.4,53.8c-2.3,1.6-4.4,3-6.7,4.6c0.8,0.2,1.5,0.3,2.1,0.4c0,0.1,0,0.1,0.1,0.2c-4.1,1.9-8.1,3.8-12.1,5.6
		c0.7,0.4,1.4,0.8,2,1.3c3.1,2.6,6.6,3.5,10.4,1.9c3.8-1.6,6.1-4.5,6.8-8.6c0.6-3.6-0.7-7.3-3-9.5c-1.3,1.1-2.7,2.2-4.2,3.4
		C40.4,53.4,41.8,53.6,43.4,53.8z"/>
	<path class="st2" d="M39.4,46.3c-1.1-0.1-2.2-0.2-3.2-0.2c-4.2-0.1-7.1,1.9-9,5.4c-2.1,3.8-2.1,7.8-0.4,11.7c0,0.1,0.1,0.2,0.1,0.1
		c2.5-2.4,5-4.8,7.6-7.3c-1.4-0.1-2.6-0.2-4-0.3C33.5,52.5,36.5,49.4,39.4,46.3z"/>
	<path class="st2" d="M121.4,72c-2.7,1.9-5.3,3.6-8,5.4c1,0.2,1.8,0.4,2.5,0.5c0,0.1,0,0.1,0.1,0.2c-4.8,2.2-9.7,4.5-14.4,6.6
		c0.8,0.5,1.7,1,2.4,1.6c3.7,3.1,7.8,4.1,12.3,2.3c4.5-1.9,7.3-5.3,8.1-10.2c0.7-4.2-0.8-8.7-3.5-11.2c-1.6,1.3-3.2,2.6-5,4
		C117.8,71.5,119.4,71.7,121.4,72z"/>
	<path class="st2" d="M116.6,63c-1.4-0.1-2.6-0.2-3.8-0.2c-4.9-0.2-8.4,2.2-10.7,6.4c-2.5,4.5-2.5,9.2-0.4,13.9
		c0.1,0.1,0.1,0.2,0.1,0.2c3-2.8,5.9-5.7,9.1-8.7c-1.7-0.1-3.1-0.2-4.8-0.3C109.6,70.4,113.1,66.7,116.6,63z"/>
	<path class="st1" d="M42.8,17.1c1.5,9.8-0.7,18.4-7.7,25.8c2.2-0.3,3.9,0.5,5.5,1.5C46,39.1,47.3,23.3,42.8,17.1z"/>
	<g>
		<path d="M107,45v8.8H79.4V17.1H107v8.5H90.5v5.3h13.4V39H90.5v6H107z"/>
		<path d="M148.3,17.1l-10.7,17L150,53.7h-13.1l-6.8-11.5l-6.8,11.5H113l11.8-18.9l-11.3-17.7h13.1l5.7,9.9l5.9-9.9H148.3z"/>
		<path d="M173,25.8v27.9h-10.7V25.8h-7.6v-8.8h25.9v8.8H173z"/>
		<path d="M207.6,53.7l-2.1-7.2h-9.8l-2.2,7.2h-9.1l11.3-36.7h11.9L219,53.7H207.6z M197.6,38.5h5.9l-3-10.6L197.6,38.5z"/>
		<path d="M259.3,53.7h-9.2l-10-16.2c-1.3-2.1-2.6-4.6-3.9-7.6c0.6,2.4,0.9,4.4,0.9,6v17.8h-9.1V17.1h10.6l8.5,13.4
			c1.7,2.7,3,5,3.9,7c-0.6-3.1-0.9-6.3-0.9-9.6V17.1h9.2V53.7z"/>
		<path d="M286.2,25.8v27.9h-10.7V25.8H268v-8.8h25.9v8.8H286.2z"/>
	</g>
	<path d="M82.5,61h6.3c1.9,0,3.5,0.6,4.6,1.7c1.1,1.2,1.7,2.7,1.7,4.6v3.1c0,1.9-0.6,3.5-1.7,4.6c-1.1,1.2-2.7,1.7-4.6,1.7h-2.3
		v10.8h-4V61z M88.6,73c0.8,0,1.4-0.2,1.8-0.6c0.4-0.4,0.6-1,0.6-1.8v-3.3c0-0.8-0.2-1.4-0.6-1.8c-0.4-0.4-1-0.6-1.8-0.6h-2.1V73
		H88.6z"/>
	<path d="M150.5,61l-3.9,26.6h-4.4L140,70.1l-2.1,17.5h-4.4L129.6,61h4.1l2.2,18l2.2-18h4.1l2.2,18l2.2-18H150.5z"/>
	<path d="M161.5,61H173v3.8h-7.4v7.4h5.9V76h-5.9v7.8h7.4v3.8h-11.4V61z"/>
	<path d="M193.3,87.6l-2.9-11h-2.1v11h-4V61h6.3c1.9,0,3.5,0.6,4.6,1.7c1.1,1.2,1.7,2.7,1.7,4.6v2.9c0,1.2-0.2,2.3-0.7,3.2
		c-0.5,0.9-1.2,1.7-2.1,2.2l3.4,11.9H193.3z M188.3,72.8h2.1c0.8,0,1.4-0.2,1.8-0.6c0.4-0.4,0.6-1,0.6-1.8v-3.1
		c0-0.8-0.2-1.4-0.6-1.8c-0.4-0.4-1-0.6-1.8-0.6h-2.1V72.8z"/>
	<path d="M208.6,61h4v22.8h7.2v3.8h-11.2V61z"/>
	<path d="M230.8,61h4v26.6h-4V61z"/>
	<path d="M247.1,61h4.4l5.1,17.9V61h4v26.6h-4.3l-5.3-17v17h-4V61z"/>
	<path d="M278.5,76.7l-1.5,2.9v8h-4V61h4v10.8l5.3-10.8h4.3l-5.7,11.3l6.1,15.3h-4.3L278.5,76.7z"/>
</g>
<g>
	<path class="st1" d="M229,6.3h1.2v8.5H229V6.3z M229.5,10h2.9c0.2,0,0.4-0.1,0.6-0.2s0.3-0.3,0.4-0.5s0.1-0.4,0.1-0.7
		s0-0.5-0.1-0.7s-0.2-0.4-0.4-0.5s-0.4-0.2-0.6-0.2h-2.9V6.3h2.9c0.5,0,0.9,0.1,1.3,0.3s0.7,0.5,0.9,0.9s0.3,0.8,0.3,1.3
		s-0.1,0.9-0.3,1.3s-0.5,0.7-0.9,0.9s-0.8,0.3-1.3,0.3h-2.9V10z M231.8,10.9l1.2-0.3l2.2,4.1h-1.4L231.8,10.9z"/>
	<path class="st1" d="M237.8,14.5c-0.4-0.3-0.8-0.6-1-1.1s-0.4-1-0.4-1.7V9.4c0-0.6,0.1-1.2,0.4-1.7s0.6-0.9,1-1.1s1-0.4,1.6-0.4
		c0.5,0,0.9,0.1,1.3,0.3s0.8,0.5,1,0.9s0.5,0.8,0.6,1.3h-1.2c-0.1-0.3-0.2-0.5-0.4-0.7s-0.4-0.4-0.6-0.5s-0.5-0.2-0.7-0.2
		c-0.3,0-0.7,0.1-0.9,0.3S238,8,237.8,8.3s-0.2,0.7-0.2,1.1v2.3c0,0.4,0.1,0.8,0.2,1.1s0.3,0.5,0.6,0.7s0.6,0.2,0.9,0.2
		c0.3,0,0.5-0.1,0.7-0.2s0.4-0.3,0.6-0.5s0.3-0.5,0.4-0.7h1.2c-0.1,0.5-0.3,0.9-0.6,1.3s-0.6,0.7-1,0.9s-0.9,0.3-1.3,0.3
		C238.8,14.9,238.2,14.7,237.8,14.5z"/>
	<path class="st1" d="M243.3,8.6h1.3v1.3h-1.3V8.6z M243.3,13.5h1.3v1.3h-1.3V13.5z"/>
	<path class="st1" d="M251.5,14.8h-1.2V7.6L249,8.3V7.1l1.2-0.8h1.2V14.8z"/>
	<path class="st1" d="M256.4,10.5l0,0.2c-0.1,0.2-0.2,0.3-0.4,0.4s-0.4,0.1-0.7,0.1c-0.4,0-0.8-0.1-1.1-0.3s-0.5-0.5-0.7-0.9
		s-0.3-0.8-0.3-1.3v0c0-0.6,0.1-1,0.3-1.4s0.5-0.7,0.8-0.9s0.8-0.3,1.3-0.3s0.9,0.1,1.3,0.3s0.6,0.5,0.8,0.9s0.3,0.9,0.3,1.4v0
		c0,0.3,0,0.6-0.1,1s-0.2,0.7-0.3,1c0,0.1,0,0.1-0.1,0.2s0,0.1-0.1,0.2l-1.8,3.7h-1.3L256.4,10.5z M256.5,9.8
		c0.2-0.3,0.3-0.6,0.3-1.1v0c0-0.4-0.1-0.8-0.3-1s-0.5-0.4-0.9-0.4c-0.4,0-0.7,0.1-0.9,0.4s-0.3,0.6-0.3,1v0c0,0.5,0.1,0.8,0.3,1.1
		s0.5,0.4,0.9,0.4C256,10.2,256.3,10.1,256.5,9.8z"/>
	<path class="st1" d="M260.2,14.2c-0.4-0.4-0.6-1-0.6-1.8V8.6c0-0.8,0.2-1.4,0.6-1.8s1-0.6,1.8-0.6c0.8,0,1.4,0.2,1.8,0.6
		s0.6,1,0.6,1.8v3.9c0,0.8-0.2,1.4-0.6,1.8s-1,0.6-1.8,0.6C261.2,14.9,260.6,14.7,260.2,14.2z M262.9,13.4c0.2-0.2,0.3-0.5,0.3-1
		V8.6c0-0.4-0.1-0.7-0.3-1s-0.5-0.3-0.9-0.3s-0.7,0.1-0.9,0.3s-0.3,0.5-0.3,1v3.9c0,0.4,0.1,0.7,0.3,1s0.5,0.3,0.9,0.3
		S262.7,13.6,262.9,13.4z"/>
	<path class="st1" d="M267.1,14.6c-0.4-0.2-0.6-0.5-0.8-0.9s-0.3-0.8-0.3-1.4v0c0-0.3,0-0.6,0.1-1s0.2-0.7,0.3-1
		c0-0.1,0-0.1,0.1-0.2s0.1-0.1,0.1-0.2l1.9-3.7h1.3l-2.2,4.2l0-0.2c0.1-0.2,0.2-0.3,0.4-0.4s0.4-0.2,0.7-0.2c0.4,0,0.8,0.1,1.1,0.3
		s0.6,0.5,0.7,0.9s0.2,0.8,0.2,1.4v0c0,0.5-0.1,1-0.3,1.4s-0.5,0.7-0.8,0.9s-0.8,0.3-1.3,0.3S267.4,14.8,267.1,14.6z M269.2,13.4
		c0.2-0.2,0.3-0.6,0.3-1v0c0-0.5-0.1-0.8-0.3-1.1s-0.5-0.4-0.9-0.4c-0.4,0-0.6,0.1-0.8,0.4s-0.3,0.6-0.3,1.1v0c0,0.4,0.1,0.8,0.3,1
		s0.5,0.3,0.9,0.3C268.7,13.7,269,13.6,269.2,13.4z"/>
	<path class="st1" d="M272.2,13.7l3-4c0.2-0.2,0.3-0.5,0.4-0.7s0.1-0.5,0.1-0.7v0c0-0.3-0.1-0.6-0.3-0.8s-0.5-0.3-0.8-0.3
		c-0.3,0-0.6,0.1-0.8,0.3s-0.3,0.5-0.4,0.9v0h-1.2v0c0.1-0.5,0.2-0.9,0.4-1.3s0.5-0.6,0.8-0.8s0.7-0.3,1.2-0.3
		c0.5,0,0.9,0.1,1.3,0.3s0.6,0.4,0.8,0.8s0.3,0.7,0.3,1.2v0c0,0.3-0.1,0.6-0.2,0.9s-0.3,0.6-0.5,0.9l-2.5,3.4h3.2v1.1h-4.8V13.7z"/>
	<path class="st1" d="M282.9,7.3l-2.2,7.5h-1.3l2.2-7.4h-2.2v1.2h-1.2V6.3h4.6V7.3z"/>
	<path class="st1" d="M285.8,14.6c-0.3-0.2-0.6-0.4-0.8-0.7s-0.3-0.7-0.4-1.2v0h1.2v0c0,0.3,0.2,0.6,0.4,0.7s0.5,0.3,0.8,0.3
		c0.4,0,0.7-0.1,0.9-0.4s0.3-0.6,0.3-1.1v-0.7c0-0.5-0.1-0.8-0.3-1.1s-0.5-0.4-0.9-0.4c-0.2,0-0.4,0.1-0.6,0.2s-0.4,0.3-0.5,0.5
		h-1.1V6.3h4.3v1.1H286v1.9c0.1-0.1,0.3-0.2,0.5-0.3s0.4-0.1,0.6-0.1c0.5,0,0.9,0.1,1.3,0.3s0.6,0.5,0.8,0.9s0.3,0.9,0.3,1.4v0.7
		c0,0.6-0.1,1-0.3,1.4s-0.5,0.7-0.8,0.9s-0.8,0.3-1.3,0.3C286.5,14.9,286.1,14.8,285.8,14.6z"/>
</g>
</svg>
